# xmcd
#
# Track frame offsets:
#	150
#	16644
#	32883
#	56140
#	74839
#	94477
#	111331
#	125314
#	148502
#	162905
#	187067
#
# Disc length: 2885 seconds
#
# Revision: 1
# Processed by: cddbd v1.5.2PL0 Copyright (c) Steve Scherf et al.
# Submitted via: audiograbber 1.83.01
#
DISCID=a30b430b
DTITLE=Shooter Jennings - The Other Life
DYEAR=2013
DGENRE=Country
TTITLE0=Flying Saucer Song
TTITLE1=A Hard Lesson To Learn
TTITLE2=The White Trash Song
TTITLE3=Wild and Lonesome
TTITLE4=Outlaw You
TTITLE5=The Other Life
TTITLE6=The Low Road
TTITLE7=Mama, It's Just My Medicine
TTITLE8=The Outsider
TTITLE9=15 Million Light-Years Away
TTITLE10=The Gunslinger
EXTD=
EXTT0=
EXTT1=
EXTT2=
EXTT3=
EXTT4=
EXTT5=
EXTT6=
EXTT7=
EXTT8=
EXTT9=
EXTT10=
PLAYORDER=
